# xmcd
#
# Track frame offsets: 
#        190
#        4925
#        12172
#        24005
#        50590
#        73806
#        101615
#        121378
#        142770
#        145945
#        163957
#        171342
#        194802
#        225117
#        242919
#        259754
#
# Disc length: 3850 seconds
#
# Revision: 2
# Processed by: cddbd v1.5.2PL0 Copyright (c) Steve Scherf et al.
# Submitted via: ExactAudioCopy v0.99pb3
#
DISCID=da0f0810
DTITLE=Cameo - Nasty
DYEAR=1996
DGENRE=Soul
TTITLE0=Intro (Live)
TTITLE1=Flirt (Live)
TTITLE2=She's Strange (Live)
TTITLE3=Back and Forth (Live)
TTITLE4=Skin I'm In (Live)
TTITLE5=Why Have I Lost You (Live)
TTITLE6=Sparkle (Live)
TTITLE7=Candy (Live)
TTITLE8=Shake Your Pants (Intro) (Live)
TTITLE9=Shake Your Pants (Live)
TTITLE10=I Just Want To Be (Live)
TTITLE11=Keep It Hot (Live)
TTITLE12=Word Up (Live)
TTITLE13=Come Fly With Me (Live)
TTITLE14=Nasty (Live)
TTITLE15=Mega Mix (Live)
EXTD=
EXTT0=
EXTT1=
EXTT2=
EXTT3=
EXTT4=
EXTT5=
EXTT6=
EXTT7=
EXTT8=
EXTT9=
EXTT10=
EXTT11=
EXTT12=
EXTT13=
EXTT14=
EXTT15=
PLAYORDER=
